<?xml version="1.0" encoding="UTF-8"?> <!-- Generator: Adobe Illustrator 25.2.0, SVG Export Plug-In . SVG Version: 6.00 Build 0) --> <svg xmlns="http://www.w3.org/2000/svg" xmlns:xlink="http://www.w3.org/1999/xlink" version="1.1" id="Layer_1" x="0px" y="0px" viewBox="0 0 489.3 108.5" style="enable-background:new 0 0 489.3 108.5; opacity: 0; transition: opacity 0s 1s" xml:space="preserve" width="268" height="58"> <style type="text/css"> .st0{fill:none;} .st1{fill:#2E3192;} .st2{fill:#802729;} .st3{fill:#AB1E2E;} </style> <g> <g> <path class="st0" d="M257.3,66.3c-1.6,0.5-3.4,0.9-5.1,1c-1.3,0-1.9-0.3-1.9-1c0.2-0.6,0.4-1.2,0.8-1.8c1.7-2.3,2.6-5,2.7-7.8 c0-1.3-0.2-2.6-0.7-3.8s-1-1.7-1.6-1.7c-0.5,0-1.3,0.6-2.4,1.7c-2.8,3-5.3,6.4-7.2,10.1c-1.6,2.8-2.5,6-2.7,9.2 c-0.1,1.6,0.3,3.1,1.1,4.4c0.5,1,1.6,1.7,2.8,1.8c0.9,0,2.7-1,5.3-3c3.1-2.5,6-5.1,8.7-8l1.3-1.1l-0.2-0.2L257.3,66.3z"></path> <path class="st0" d="M407.6,73.2c1.8-2.2,3.1-4.6,4-7.3c0.8-1.9,1.4-3.9,1.8-6c0.4-2,0.6-4.1,0.6-6.2c0-1.8-0.4-2.7-1.1-2.7 c-1,0-2.6,2.3-4.8,6.9c-1.2,2.7-2.3,5.4-3.1,8.3c-0.7,2.3-1.1,4.7-1.2,7.1c0,1,0.2,2,0.4,2.9C405.5,75.4,406.6,74.3,407.6,73.2z"></path> <polygon class="st0" points="38.4,44.7 29.5,63.7 42.7,63.7 38.6,44.7 "></polygon> <path class="st1" d="M64.7,72.2c-0.5-1.4-1-2.4-1.3-3.1c-1-2.6-1.7-4.5-2-5.7c-0.4-1.2-1.1-3.9-2.3-8.2c-0.4-1.5-0.8-3.8-1.3-6.8 c-0.6-4.7-1.6-9.3-3-13.8c-0.8-2.8-2.2-5.3-4.1-7.5C48.7,25,46,24,42.4,24c-3.1-0.1-6.1,0.4-9.1,1.3c-0.8,0.3-1.5,0.7-2.1,1.2 l3,5.4c-2.4,4.3-4.4,7.7-5.8,10.2c-1.4,2.6-2.7,4.8-3.9,6.8c-1.1,2-2.1,3.7-2.8,5c-0.7,1.3-2.4,4.4-5,9.2c-2-0.1-4,0.1-5.9,0.6 c-1.4,0.6-2.7,1.5-3.6,2.6c-2.7,2.8-4.1,5-4.1,6.4c0,1.8,1.7,3,5.1,3.6c-0.6,1-1.6,2.3-2.8,4C1.8,85.1,0,88.1,0,89.2 c0,0.8,0.4,1.6,1.1,1.9c1.2,0.5,2.5,0.7,3.8,0.6c2.6,0.1,5.2-0.3,7.6-1.2c2.1-0.9,4-2.3,5.4-4.2c2-2.7,3.7-5.6,5-8.7l0.5-1 c6.2,0.1,9.7,0.2,10.4,0.3c0.9,0.1,1.9,0.1,3.1,0.1c2.1,0,5.1-0.8,8.9-2.4c0.2,0.7,0.4,1.3,0.6,1.8c0.2,0.6,0.3,1,0.5,1.4 c0.9,3.1,2.2,6.1,3.7,9c0.9,1.4,2.1,2.7,3.5,3.6c1.5,0.8,3.1,1.2,4.8,1.1c1.8-0.1,3.6-0.5,5.2-1.3c2.4-1.2,4.8-2.6,6.9-4.1 c-2.2-4.2-3.8-7.5-4.9-10.1C65.7,74.8,65.2,73.6,64.7,72.2z M29.5,63.7l8.9-19h0.2l4.1,19H29.5z"></path> <path class="st1" d="M95.9,44.2c-0.6,0-1.3,0.2-1.8,0.6c-0.8,0.7-1.6,1.4-2.2,2.3c-0.4,0.5-0.8,1-1.3,1.4 c-0.5-2.8-1.9-4.2-4.2-4.2c-1.6,0-3.1,0.5-4.3,1.5c-1.5,1.5-2.8,3.2-3.7,5.2c-1.4,3.2-2.5,6.5-3.3,9.8c-0.1,0.4-0.2,0.8-0.3,1.2 l-0.4,1.3c-0.9,3.3-1.6,6.7-2.1,10c-0.5,3.1-0.8,6.2-0.9,9.4c0,3.2,0.5,5.5,1.4,6.9s2.6,2.3,4.3,2.1c2.4,0,4.8-1.1,7.2-3.3 c0.7-0.6,1.3-1.4,1.9-2.1c0.5-0.8,0.8-1.6,1-2.5c0.3-1.3,0.4-2.6,0.5-3.9c0.1-0.8,0.2-1.6,0.2-2.4l0.2-1c0.1-1,0.3-3.3,0.5-7.1 c0.3-6.5,0.9-10.7,1.9-12.5c0.6,0.9,1,1.8,1.1,2.9c0.3,1.7,0.4,3.4,0.4,5.1c0,4.1,0.5,6.1,1.6,6.1c1,0,2-0.9,3-2.7 c1.1-2.2,2-4.5,2.5-6.9c0.7-2.9,1-5.8,1-8.8C100.1,46.9,98.7,44.2,95.9,44.2z"></path> <path class="st1" d="M148.8,58c-0.5-1.7-1.3-3.4-2.3-4.9c-0.9-1.3-2.1-2.4-3.5-3.3c-1.3-0.7-2.7-1.1-4.2-1.1 c-1.6,0.1-3.2,0.4-4.7,1c-1.8,0.6-3.5,1.5-5,2.5c-1.3,0.9-2,1.6-2,2.1c0,0.3,0.5,0.9,1.4,1.6c2.2,1.6,3.9,3.7,5.1,6.1 c1.2,2.4,1.7,5.1,1.7,7.8c0.1,3.2-0.9,6.3-2.8,8.9c-1.9,2.5-4,3.8-6.5,3.8c-2.6,0.1-5-1.2-6.5-3.2c-1.8-2.5-2.6-5.5-2.5-8.6 c0-3.1,0.5-6.2,1.5-9.2c0.9-2.8,2.4-5.5,4.2-7.8c1.7-2.2,3.7-4.1,6.1-5.5c2.2-1.3,4.8-2.1,7.4-2.2c2.2-0.1,3.3-0.8,3.3-2.1 c0-1.1-2.4-1.7-7.3-1.7c-4,0-8,0.9-11.6,2.7c-3.9,1.8-7.4,4.3-10.5,7.3s-5.6,6.4-7.5,10.3c-1.8,3.5-2.7,7.4-2.8,11.3 c0,4.8,1.3,8.5,3.9,11.1c2.3,2.1,5,3.7,7.9,4.6c3.2,1.2,6.6,1.7,10.1,1.8c3.8-0.1,7.6-0.9,11-2.5c3.7-1.5,7-3.7,9.9-6.5 c2.3-2.3,4-5.1,5.1-8.2c1.3-3.3,1.9-6.7,2-10.2C149.6,61.9,149.3,59.9,148.8,58z"></path> <path class="st1" d="M220.2,87.7c-0.2-1.2-0.3-2.3-0.4-3.4c-0.1-1.1-0.1-1.9-0.1-2.6c0-0.9,0.1-2.5,0.3-4.8s0.5-5.5,1-9.5 c0.4-2.6,0.7-5.2,0.8-7.9c0-2.7-0.5-4.7-1.6-6.1c-1.1-1.4-2.8-2.2-4.6-2.1c-1.4,0.1-2.8,0.6-3.9,1.4c-2,1.6-3.9,3.4-5.5,5.3 c-3.5,3.6-5.8,5.8-6.6,6.7c-0.4,0.4-0.8,0.7-1.2,1.1s-0.8,0.8-1.2,1.1l-1.2,1.2l-0.2-0.2c0.2-0.5,0.4-1.1,0.6-1.8 c0.2-0.7,0.5-1.6,1-2.8c2-5.8,3-9.3,3-10.7s-0.3-2.7-0.9-3.9c-0.5-1.2-1.4-2.2-2.4-3c-0.9-0.7-2-1.1-3.2-1.1 c-2.5,0-5.3,1.4-8.3,4.2c-3.8,3.6-7.2,7.5-10.4,11.6c-2.7,3.3-4.6,5.5-5.8,6.9l-0.2-0.2c0.7-2.3,1.5-4.4,2.2-6.3 c1.8-5,2.8-8.7,2.8-11.2c0-1.3-0.6-2.5-1.7-3.2c-1.3-0.9-2.8-1.3-4.4-1.2c-2.9,0-5.5,1.7-7.7,5.1c-1.5,2.4-3.7,7.2-6.5,14.4 c-3.1,8.1-4.7,13.9-4.7,17.5c-0.1,2.4,0.5,4.8,1.9,6.8c1.2,1.6,3,2.6,5,2.5c1.2-0.1,2.3-0.5,3.2-1.1c1.5-1,2.8-2.1,4.1-3.4 c1.5-1.5,3.5-3.8,6.1-6.8c3-3.7,6.1-7.2,9.3-10.5l0.2,0.2c-0.1,0.3-0.3,0.7-0.5,1.2s-0.4,1-0.7,1.7c-0.9,2.3-1.7,4.7-2.4,7.1 c-0.4,1.4-0.6,2.9-0.6,4.4c-0.1,2,0.7,4,2,5.4s3.1,2.3,5,2.2c1.2,0,2.4-0.3,3.5-1c1.5-1,2.9-2.2,4.2-3.5l13.3-13.7l0.9-1.2 l0.2,0.2c-0.4,5.2-0.6,8.6-0.6,10.3c0,2,0.1,4.1,0.4,6.1c0.2,1.4,0.6,2.7,1.2,4c0.6,1.2,1.5,2.4,2.4,3.3c2.3,2.4,4.8,3.6,7.5,3.6 c1.6,0,3.3-0.4,4.7-1.2c1.2-0.6,2.2-1.7,2.6-3c-0.1-1-0.4-2.4-0.8-4.2C220.7,90.2,220.4,88.9,220.2,87.7z"></path> <path class="st1" d="M272.2,79.6c-0.1-1-0.2-1.8-0.2-2.6c0-0.7,0-1.9,0-3.3c0-2.8,0.1-5.8,0.3-9c0.2-1.5,0.2-2.1,0.2-2 c0-1.4-0.2-2.2-0.7-2.6c-0.5-0.4-1.6-0.6-3.3-0.6c1.2-1.8,1.9-3.9,2-6.1c0-2.6-1.3-4.8-4-6.5c-3.1-1.8-6.7-2.7-10.3-2.6 c-4.9,0-10.1,1.8-15.4,5.3c-5.1,3.3-9.4,7.6-12.9,12.6c-2,2.9-3.6,6-4.8,9.3c-1.1,2.6-1.7,5.4-1.8,8.2c-0.1,3.4,1.2,6.8,3.6,9.3 c2.4,2.4,5.6,3.8,9,3.7c2.1-0.1,4.1-0.7,5.9-1.7c2.5-1.4,4.9-3.1,7-5.1c3-2.7,5.7-5.6,8.3-8.7l0.2,0.2c-0.1,0.7-0.1,1.4-0.1,2.1 c0,8.4,2.5,12.6,7.5,12.6c1.9,0,3.8-0.5,5.5-1.3c2.1-1.1,4-2.5,5.6-4.2c-0.6-1.5-1-3-1.3-4.5C272.4,81.4,272.3,80.6,272.2,79.6z M257.1,67.3c-2.7,2.9-5.6,5.5-8.7,8c-2.6,2-4.4,3-5.3,3c-1.2,0-2.2-0.7-2.8-1.8c-0.8-1.3-1.2-2.9-1.1-4.4 c0.1-3.2,1.1-6.4,2.7-9.2c1.9-3.7,4.4-7.1,7.2-10.1c1.1-1.1,1.9-1.7,2.4-1.7c0.6,0,1.1,0.6,1.6,1.7c0.5,1.2,0.7,2.5,0.7,3.8 c-0.1,2.8-1.1,5.5-2.7,7.8c-0.4,0.6-0.6,1.2-0.8,1.8c0,0.7,0.6,1,1.9,1c1.7-0.1,3.4-0.5,5.1-1l0.9-0.3l0.2,0.2L257.1,67.3z"></path> <path class="st1" d="M342.3,38.7c0.8-3.3,1.4-6.7,1.8-10.2c0-1.8-1.7-3.1-5.3-4c-3.5-0.8-9-1.3-16.4-1.3c-3.1,0-6.1,0.1-9.2,0.5 c-2.1,0.2-4.1,0.7-6.1,1.4c-2.1,1-3.9,2.6-5.1,4.6c-1.4,1.9-2.2,4.1-2.4,6.4c0,1.2,0.6,2.2,1.6,2.8c1.3,0.7,2.8,1.1,4.3,1 c1.8,0,5.5-0.8,11.1-2.5c1.3-0.4,2.1-0.6,2.4-0.7c0.3-0.1,0.7-0.2,1.2-0.3s1.1-0.3,1.7-0.5c-0.9,8.3-1.8,15.1-2.7,20.5 s-2.3,12.2-4.3,20.4c-1.2,5-2.7,10.5-4.6,16.4c-0.7,2.1-1.7,4.2-2.8,6.1c-0.6-2.1-0.8-4.2-0.8-6.3c0.1-5.3,0.7-10.7,1.7-15.9 c0.2-0.9,0.3-1.8,0.4-2.8c0-0.9-0.1-1.7-0.5-2.5c-0.2-0.5-0.7-0.9-1.2-0.9c-0.9,0.1-1.8,0.5-2.6,1.1c-1.2,0.7-2.3,1.6-3.3,2.5 c-1.9,2.1-3.4,4.5-4.3,7.2c-1.1,2.9-1.6,5.9-1.6,8.9c0,4.3,1.4,8.5,3.8,12c2.5,3.8,5.1,5.8,7.7,5.8c1.9,0,3.7-0.5,5.3-1.3 c1.9-1,3.6-2.4,5-4c1.7-2,3.3-4.2,4.5-6.5c6.3-11.5,11.9-26,16.8-43.5C339.9,48.9,341.1,44.1,342.3,38.7z"></path> <path class="st1" d="M386.9,58c-0.5-1.7-1.3-3.4-2.3-4.9c-0.9-1.3-2.1-2.4-3.5-3.3c-1.3-0.8-2.7-1.1-4.2-1.1 c-1.6,0.1-3.2,0.4-4.7,1c-1.8,0.6-3.5,1.5-5,2.5c-1.3,0.9-2,1.6-2,2.1c0,0.3,0.5,0.9,1.4,1.6c2.2,1.6,3.9,3.7,5.1,6.1 s1.7,5.1,1.7,7.8c0.1,3.2-0.9,6.3-2.8,8.9c-1.9,2.5-4,3.8-6.5,3.8c-2.6,0.1-5-1.2-6.5-3.2c-1.8-2.5-2.6-5.5-2.5-8.6 c0-3.1,0.5-6.2,1.5-9.2c0.9-2.8,2.3-5.5,4.1-7.8c1.7-2.2,3.7-4.1,6.1-5.5c2.2-1.3,4.8-2.1,7.4-2.2c2.2-0.1,3.3-0.8,3.3-2.1 c0-1.1-2.4-1.7-7.3-1.7c-4,0-8,0.9-11.6,2.7c-3.9,1.8-7.4,4.3-10.5,7.3s-5.6,6.4-7.5,10.3c-1.8,3.5-2.7,7.4-2.8,11.3 c0,4.8,1.3,8.5,3.9,11.1c2.3,2.1,5,3.7,7.9,4.6c3.2,1.2,6.6,1.7,10.1,1.8c3.8-0.1,7.6-0.9,11-2.5c3.7-1.5,7-3.7,9.9-6.5 c2.3-2.3,4-5.1,5.1-8.2c1.3-3.3,1.9-6.7,2-10.2C387.7,61.9,387.5,59.9,386.9,58z"></path> <path class="st1" d="M412.1,76.4c2.4-1.4,4.6-3.2,6.5-5.2c2.5-2.4,4.6-5.2,6.1-8.3c1.3-2.6,2-5.4,2.1-8.3c0-3.4-0.9-6-2.6-8 c-1.9-2-4.5-3-7.2-2.9c-4.2,0-8.7,1.5-13.3,4.6c-3.7,2.5-7,5.8-9.5,9.5c-2.2,3.3-3.9,6.8-5.2,10.5c-1.2,3.2-1.8,6.6-1.9,10 c-0.2,3.5,1.2,6.9,3.7,9.3c2.4,2.3,5.7,3.5,9.8,3.5c1.9,0,3.8-0.4,5.6-1c2.2-0.7,4.3-1.5,6.2-2.6c2.3-1.2,4.4-2.6,6.5-4.1 s4.1-3.2,6-5.1c0.7-0.6,1.2-1.4,1.4-2.3c0-0.6-0.4-1.1-1.3-1.6c-0.8-0.5-1.8-0.8-2.7-0.8c-0.8,0-2.3,0.8-4.6,2.5 c-3.9,2.9-7.1,4.3-9.5,4.3c-2.2,0-3.5-1-3.8-2.9c0.7,0.3,1.4,0.5,2.2,0.5C408.5,78.2,410.4,77.5,412.1,76.4z M404.2,76.2 c-0.2-1-0.4-1.9-0.4-2.9c0.1-2.4,0.5-4.8,1.2-7.1c0.8-2.8,1.9-5.6,3.1-8.3c2.1-4.6,3.7-6.9,4.8-6.9c0.7,0,1.1,0.9,1.1,2.7 c0,2.1-0.2,4.2-0.6,6.2c-0.4,2.1-1,4.1-1.8,6c-0.9,2.6-2.2,5.1-4,7.3C406.6,74.3,405.5,75.4,404.2,76.2z"></path> <path class="st1" d="M469.4,72.3c-2.8-1.3-5.7-2.3-8.7-2.9c-1.9-0.4-3.7-1-5.5-1.6c-1-0.4-1.9-1-2.6-1.8c-0.6-0.8-0.9-1.8-0.8-2.8 c0-1.8,0.4-3.6,1.1-5.3c0.7-1.8,1.6-3.4,2.9-4.9c0.9-1,2-1.9,3.1-2.6c1.2,1.7,1.8,3.7,1.9,5.8c-0.1,2.5-0.4,4.9-1.1,7.3 c-0.2,0.6-0.3,1.3-0.4,2c0,0.5,0.3,0.9,1,1.3s1.5,0.6,2.4,0.6c1.9-0.1,3.6-0.8,5.1-2c1.8-1.3,3.3-3,4.4-5c1.1-1.7,1.7-3.7,1.8-5.8 c0-1.9-0.6-3.7-1.6-5.2c-1.1-1.6-2.6-3-4.3-3.9c-1.8-1-3.8-1.5-5.9-1.5c-4.5,0.1-8.9,1.3-12.8,3.6c-4.1,2.3-7.7,5.4-10.4,9.2 c-2.5,3.2-4,7.1-4.1,11.2c0,2,0.8,4,2.2,5.4c1.6,1.9,4.9,3.5,10.1,5c3.5,1,5.8,2,6.8,3c1,0.9,1.5,2.1,1.4,3.4 c0,2.2-0.9,4.2-2.4,5.8c-1.3,1.6-3.2,2.6-5.2,2.8c-0.9-1.1-1.5-2.5-1.5-3.9c0.1-2.2,0.7-4.4,1.9-6.3c0.3-0.5,0.5-1,0.6-1.6 c0-0.7-0.7-1-2.2-1c-2.1,0-4.2,0.6-6,1.7c-2,1.1-3.7,2.6-5.1,4.4c-1.3,1.5-2,3.4-2.1,5.3c-0.1,2.4,1.1,4.6,3.1,5.9 c2.1,1.4,4.9,2.1,8.5,2.1c3.5,0,7-0.5,10.3-1.7c3.4-1.3,6.6-3.3,9.3-5.7c2.5-2,4.7-4.4,6.5-7.1c1.3-2,2-4.4,2.1-6.8 c0.1-1.9-0.6-3.8-1.9-5.2C470.7,73.2,470.1,72.7,469.4,72.3z"></path> <path class="st2" d="M457.4,7.4L457.4,7.4L457.4,7.4L457.4,7.4z"></path> <path class="st2" d="M447.9,36.7c0,0,14-10.5-10.7-11.9c-11.3-0.7,3.4-9.7,12.8-14.6c2.4-1.2,4.9-2.1,7.4-2.7 c-0.4,0-15.4,1.1-25.7,5.4c-15.2,6.4-25.1,17.4-2.7,17.5C451.5,30.3,452.7,30.8,447.9,36.7z"></path> <path class="st3" d="M438,48.3c3.1-2.9,6.9-5.1,11-6.4c14.4-5.2,13.8-13.6,7.2-17c-5.9-3-14.4-1.1-14.4-1.1l0,0 c0.1,0.3,4.8-0.6,9.2,1.3c5.1,2.2,5.3,8.3-0.7,11.8c-3.6,2.1-7.5,3.9-10.7,6.4c-5.9,4.6-8.2,14.5-8.2,14.5 C432.8,54.2,435.1,50.9,438,48.3z"></path> </g> <g> <path d="M488,49.3c0,3.4-2.6,6-6.1,6c-3.4,0-6.1-2.6-6.1-6c0-3.3,2.7-5.9,6.1-5.9C485.3,43.3,488,46,488,49.3z M477.3,49.3 c0,2.6,2,4.8,4.6,4.8c2.6,0,4.5-2.1,4.5-4.7c0-2.6-1.9-4.8-4.6-4.8S477.3,46.7,477.3,49.3z M480.9,52.4h-1.4v-5.9 c0.5-0.1,1.3-0.2,2.3-0.2c1.1,0,1.6,0.2,2.1,0.4c0.3,0.3,0.6,0.7,0.6,1.3c0,0.7-0.5,1.2-1.2,1.4v0.1c0.6,0.2,0.9,0.7,1.1,1.5 c0.2,0.9,0.3,1.3,0.4,1.5h-1.5c-0.2-0.2-0.3-0.8-0.5-1.5c-0.1-0.7-0.5-0.9-1.2-0.9h-0.7V52.4z M481,49h0.7c0.8,0,1.4-0.3,1.4-0.9 c0-0.5-0.4-0.9-1.3-0.9c-0.4,0-0.6,0-0.8,0.1V49z"></path> </g> </g> </svg>
