<svg xmlns="http://www.w3.org/2000/svg" viewBox="0 0 322.52 227.12"><defs><mask id="a111" x="0" y="53.84" width="322.3" height="131.98" maskUnits="userSpaceOnUse"><path fill="#fff" d="M0 53.84v131.97h322.3V53.84H0z"/></mask><mask id="b111" x="63.57" y="138.68" width="258.95" height="37.97" maskUnits="userSpaceOnUse"><path fill="#fff" d="M322.52 176.65v-37.97H63.57v37.97h258.95z"/></mask></defs><rect width="322.52" height="227.12" rx="29.88" fill="#006fcf"/><g mask="url(#a111)"><path d="M282.81 110.14H307v-56.3h-25.82v9l-5.74-9h-22.51v11.38l-5.05-11.38h-37.21a34.29 34.29 0 00-5.22.39 30.05 30.05 0 00-4.19 1 29.39 29.39 0 00-3.09 1.18 25.89 25.89 0 00-3.34 1.86v-4.4H73.39l-3.31 9.82-3.36-9.82H38.46v11.48l-5.1-11.51h-23L0 77.92v32.22h16.33l3-8.08h5.75l3.1 8.08h125.65V102l6.29 8.19h34.71v-4.09a22.9 22.9 0 002.78 1.53 26.34 26.34 0 002.9 1.13 28.09 28.09 0 003.67.91 32.64 32.64 0 005.9.52h20.77l3-8.08h5.75l3.09 8.08h34.82v-8.35zm39.49 72.21v-52.83H122.37l-5.1 7.21-5-7.21H54.73v56.29H112l5-7.32 5.15 7.32H158v-12.14h-.38a34.67 34.67 0 0012.1-2.14v14.28h25v-8.18l6.3 8.18H309.5a25.44 25.44 0 008.67-1.48 22.17 22.17 0 004.13-1.98z" fill="#f7f7f7"/></g><g mask="url(#b111)"><path d="M309.72 169.06h-19.47v7.59h19.19c8.2 0 13.08-5 13.08-12.1 0-6.78-4.4-10.73-11.77-10.73H302a3.47 3.47 0 01-3.69-3.64 3.56 3.56 0 013.69-3.8h16.49l3.37-7.7h-19.63c-8.19 0-13.07 5-13.07 11.83 0 7 4.61 11 11.83 11h8.73a3.51 3.51 0 013.74 3.69 3.62 3.62 0 01-3.74 3.86zm-36.13 0h-19.47v7.59h19.2c8.19 0 13.08-5 13.08-12.1 0-6.78-4.4-10.73-11.78-10.73h-8.78a3.47 3.47 0 01-3.69-3.64 3.56 3.56 0 013.69-3.8h16.48l3.37-7.7h-19.58c-8.19 0-13.08 5-13.08 11.83 0 7 4.62 11 11.83 11h8.73a3.51 3.51 0 013.74 3.69 3.62 3.62 0 01-3.74 3.86zm-25-22.68v-7.7h-30.38v38h30.38V169h-21.26v-7.64h20.77v-7.6h-20.77v-7.38zm-50.88.06c3.25 0 5 2.11 5 4.72s-1.74 4.66-5 4.66H187v-9.38zM187 163h4.29l11.34 13.67H214l-12.63-14c6.45-1.2 10.3-5.86 10.3-11.94 0-7.1-5-12-13.13-12h-20.63v38H187zm-23.21-11.55a4.45 4.45 0 01-4.83 4.66h-10.9v-9.32H159c3.18-.02 4.81 2.03 4.81 4.64zM139 138.68v38h9.11v-12.56h11.44c8.3 0 13.45-5.42 13.45-12.75 0-7.53-5-12.69-13.12-12.69zm-13.4 38H137l-15.28-19.18 15.13-18.82h-11.06l-9.33 12-9.28-12H95.79l15.19 19-15.14 19h11.07l9.33-12.2zM94 146.38v-7.7H63.57v38H94V169H72.69v-7.64h20.77v-7.6H72.69v-7.38z" fill="#006fcf"/></g><path d="M270.17 78.25l-.1-3.15 1.93 3.15L286.5 101h10.63V63h-8.89v22l.11 2.83-1.68-2.83-14.22-22h-11.17v38h8.89zm-36.33-1.08l2.76-7.11 2.76 7.11 3.37 8.4h-12.2zM248.91 101h10.25L243 63h-12l-16.27 38h9.7l3.21-8.14h18.06zm-39.76 0h.49l3.74-8.09h-2.76c-6.24 0-9.93-3.9-9.93-10.63v-.54c0-6 3.31-10.52 9.82-10.52h9.87V63h-10.63c-11.71 0-18.12 7.86-18.12 18.66v.65c0 11.29 6.57 18.61 17.52 18.69zm-32.38 0h9.11V63h-9.11v38zm-19.15-30.23c3.26 0 5 2.11 5 4.71s-1.74 4.67-5 4.67h-10.68v-9.38zm-10.68 16.54h4.28L162.56 101h11.34l-12.64-14c6.46-1.19 10.31-5.86 10.31-11.93 0-7.11-5-12-13.13-12h-20.61v38h9.11zm-15.78-16.6V63h-30.38v38h30.38v-7.78h-21.27v-7.54h20.78v-7.59h-20.78v-7.38zM55.6 75.05l-.22-10.25L65.9 101h8.25l10.52-36-.22 10v26h8.84V63H77.24L70 89.91 62.76 63h-16v38h8.84zm-36.29 2.12l2.77-7.11 2.76 7.11 3.37 8.4H16zM34.39 101h10.25L28.42 63h-12L.16 101h9.71l3.2-8.14h18.07z" fill="#006fcf"/></svg>

