<svg xmlns="http://www.w3.org/2000/svg" xmlns:xlink="http://www.w3.org/1999/xlink" viewBox="0 0 135 40"><defs><mask id="a" x="0" y="0" width="135" height="40" maskUnits="userSpaceOnUse"><polygon points="0.06 40 0.06 0.04 135 0.04 135 40 0.06 40" fill="#fff" fill-rule="evenodd"/></mask></defs><g mask="url(#a)"><path d="M130.2,40H4.73A4.74,4.74,0,0,1,0,35.27V4.73A4.73,4.73,0,0,1,4.73,0H130.2A4.8,4.8,0,0,1,135,4.73V35.27A4.81,4.81,0,0,1,130.2,40" fill="#a9aaa9" fill-rule="evenodd"/></g><path d="M134,35.27a3.83,3.83,0,0,1-3.83,3.83H4.73A3.84,3.84,0,0,1,.89,35.27V4.72A3.84,3.84,0,0,1,4.73.89H130.2A3.83,3.83,0,0,1,134,4.72V35.27h0" fill="#0a0a08" fill-rule="evenodd"/><path d="M30.13,19.78a5.79,5.79,0,0,1,2.76-4.86,5.93,5.93,0,0,0-4.68-2.53c-2-.2-3.87,1.18-4.87,1.18s-2.57-1.16-4.23-1.12a6.22,6.22,0,0,0-5.24,3.19c-2.27,3.93-.58,9.69,1.59,12.86,1.09,1.55,2.36,3.29,4,3.23s2.23-1,4.19-1,2.51,1,4.21,1,2.84-1.56,3.89-3.13a13,13,0,0,0,1.78-3.62,5.61,5.61,0,0,1-3.42-5.16" fill="#fff" fill-rule="evenodd"/><path d="M26.93,10.31a5.71,5.71,0,0,0,1.3-4.09,5.77,5.77,0,0,0-3.75,1.94,5.4,5.4,0,0,0-1.34,3.94,4.83,4.83,0,0,0,3.79-1.79" fill="#fff" fill-rule="evenodd"/><path d="M49.76,26l-1.13-3.47c-.12-.35-.34-1.19-.67-2.51h0c-.13.57-.34,1.41-.63,2.51L46.18,26Zm3.89,5.55H51.37l-1.24-3.91H45.81L44.62,31.5H42.41l4.28-13.3h2.65l4.31,13.3Z" fill="#fff" fill-rule="evenodd"/><path d="M62.49,26.67a3.94,3.94,0,0,0-.63-2.31A2.19,2.19,0,0,0,60,23.41a2.21,2.21,0,0,0-1.43.52,2.42,2.42,0,0,0-.84,1.38,3.05,3.05,0,0,0-.1.64v1.61a2.55,2.55,0,0,0,.65,1.76,2.11,2.11,0,0,0,1.66.72,2.18,2.18,0,0,0,1.88-.93A4,4,0,0,0,62.49,26.67Zm2.17-.08a5.47,5.47,0,0,1-1.32,3.87,3.87,3.87,0,0,1-2.94,1.26,3,3,0,0,1-2.73-1.36h0v5H55.5V25.07c0-1,0-2.08-.08-3.16H57.3l.12,1.52h0a3.54,3.54,0,0,1,3.23-1.72,3.58,3.58,0,0,1,2.84,1.34,5.35,5.35,0,0,1,1.13,3.54Z" fill="#fff" fill-rule="evenodd"/><path d="M73.53,26.67a3.87,3.87,0,0,0-.64-2.31,2.26,2.26,0,0,0-3.28-.43,2.42,2.42,0,0,0-.84,1.38,2.51,2.51,0,0,0-.1.64v1.61a2.54,2.54,0,0,0,.64,1.76A2.13,2.13,0,0,0,71,30a2.2,2.2,0,0,0,1.88-.93A4.1,4.1,0,0,0,73.53,26.67Zm2.17-.08a5.47,5.47,0,0,1-1.32,3.87,3.88,3.88,0,0,1-2.95,1.26,2.93,2.93,0,0,1-2.72-1.36h0v5H66.54V25.07c0-1,0-2.08-.08-3.16h1.87l.12,1.52h0a3.79,3.79,0,0,1,6.07-.38,5.3,5.3,0,0,1,1.14,3.54Z" fill="#fff" fill-rule="evenodd"/><path d="M88,27.77a3.56,3.56,0,0,1-1.18,2.77,5.29,5.29,0,0,1-3.63,1.16,6.38,6.38,0,0,1-3.45-.83l.5-1.78a5.78,5.78,0,0,0,3.08.85,2.94,2.94,0,0,0,1.88-.54A1.79,1.79,0,0,0,85.91,28a1.87,1.87,0,0,0-.56-1.37,5.13,5.13,0,0,0-1.83-1Q80,24.24,80,21.74a3.37,3.37,0,0,1,1.23-2.69A4.82,4.82,0,0,1,84.51,18a6.49,6.49,0,0,1,3,.63L87,20.37a5.23,5.23,0,0,0-2.55-.61,2.55,2.55,0,0,0-1.75.55,1.56,1.56,0,0,0-.53,1.2,1.63,1.63,0,0,0,.61,1.31,6.81,6.81,0,0,0,1.93,1,6.62,6.62,0,0,1,2.53,1.62A3.39,3.39,0,0,1,88,27.77" fill="#fff" fill-rule="evenodd"/><path d="M95.09,23.51H92.74v4.66c0,1.18.41,1.77,1.24,1.77a4.19,4.19,0,0,0,1-.09L95,31.47a5,5,0,0,1-1.66.23,2.55,2.55,0,0,1-2-.77,3.73,3.73,0,0,1-.72-2.59V23.51h-1.4v-1.6h1.4V20.15l2.1-.63v2.39h2.35v1.6" fill="#fff" fill-rule="evenodd"/><path d="M103.48,26.7a4.33,4.33,0,0,0-.57-2.28,2.2,2.2,0,0,0-3.87,0,4.32,4.32,0,0,0-.58,2.32A4.23,4.23,0,0,0,99,29a2.18,2.18,0,0,0,3.85,0A4.33,4.33,0,0,0,103.48,26.7Zm2.21-.07a5.28,5.28,0,0,1-1.26,3.63,4.55,4.55,0,0,1-3.52,1.46,4.28,4.28,0,0,1-3.36-1.4,5.08,5.08,0,0,1-1.26-3.54,5.2,5.2,0,0,1,1.3-3.65,4.46,4.46,0,0,1,3.48-1.42,4.41,4.41,0,0,1,3.4,1.4,5.09,5.09,0,0,1,1.22,3.52Z" fill="#fff" fill-rule="evenodd"/><path d="M112.62,23.78a3.58,3.58,0,0,0-.67-.05,2,2,0,0,0-1.74.84,3.25,3.25,0,0,0-.53,1.9v5h-2.13l0-6.57c0-1.11,0-2.11-.08-3h1.85l.08,1.83h.06a3.22,3.22,0,0,1,1.07-1.51,2.53,2.53,0,0,1,1.54-.52,4.09,4.09,0,0,1,.53,0v2" fill="#fff" fill-rule="evenodd"/><path d="M120.12,25.7a2.85,2.85,0,0,0-.41-1.64,1.88,1.88,0,0,0-1.7-.89,2,2,0,0,0-1.7.87,3.29,3.29,0,0,0-.63,1.66Zm2,.55a5.26,5.26,0,0,1-.08,1h-6.4a2.81,2.81,0,0,0,.93,2.17,3.16,3.16,0,0,0,2.09.67,7.15,7.15,0,0,0,2.59-.45l.33,1.48a8.1,8.1,0,0,1-3.21.59,4.68,4.68,0,0,1-3.51-1.31,4.85,4.85,0,0,1-1.27-3.53,5.5,5.5,0,0,1,1.18-3.61,4.09,4.09,0,0,1,3.36-1.54,3.57,3.57,0,0,1,3.14,1.54,5.24,5.24,0,0,1,.85,3Z" fill="#fff" fill-rule="evenodd"/><path d="M47.94,10a2.41,2.41,0,0,0-.6-1.76,2.44,2.44,0,0,0-1.77-.61,4.22,4.22,0,0,0-.85.07v4.89a5.56,5.56,0,0,0,.71,0A2.52,2.52,0,0,0,47.29,12,2.67,2.67,0,0,0,47.94,10Zm1.11,0A3.28,3.28,0,0,1,48,12.67a4.19,4.19,0,0,1-2.78.82,11.22,11.22,0,0,1-1.53-.08V7a11.2,11.2,0,0,1,1.8-.13,3.92,3.92,0,0,1,2.59.74,3,3,0,0,1,1,2.42Z" fill="#fff" fill-rule="evenodd"/><path d="M53.82,11.07A2.12,2.12,0,0,0,53.54,10a1,1,0,0,0-.94-.56,1.06,1.06,0,0,0-1,.56,2.14,2.14,0,0,0-.28,1.14,2.12,2.12,0,0,0,.28,1.12,1.07,1.07,0,0,0,1.89,0A2.16,2.16,0,0,0,53.82,11.07Zm1.09,0a2.59,2.59,0,0,1-.62,1.78,2.23,2.23,0,0,1-1.73.72,2.1,2.1,0,0,1-1.65-.69,2.52,2.52,0,0,1-.62-1.74,2.53,2.53,0,0,1,.64-1.79,2.4,2.4,0,0,1,3.38,0,2.5,2.5,0,0,1,.6,1.73Z" fill="#fff" fill-rule="evenodd"/><path d="M62.76,8.72l-1.47,4.71h-1l-.61-2a14.24,14.24,0,0,1-.38-1.53h0a11.4,11.4,0,0,1-.38,1.53l-.65,2h-1L55.94,8.72H57L57.55,11c.12.53.23,1,.32,1.51h0q.12-.59.39-1.5l.67-2.25h.86l.64,2.2c.15.54.28,1.06.37,1.55h0a15.52,15.52,0,0,1,.33-1.55l.57-2.2h1" fill="#fff" fill-rule="evenodd"/><path d="M68.2,13.43h-1v-2.7c0-.83-.32-1.25-1-1.25a1,1,0,0,0-.76.35,1.24,1.24,0,0,0-.29.81v2.79H64.1V10.07q0-.63,0-1.35H65l.05.74h0a1.47,1.47,0,0,1,.54-.57,1.73,1.73,0,0,1,1-.27,1.47,1.47,0,0,1,1.09.43,2,2,0,0,1,.55,1.56v2.82" fill="#fff" fill-rule="evenodd"/><polygon points="70.04 13.43 71.09 13.43 71.09 6.56 70.04 6.56 70.04 13.43" fill="#fff" fill-rule="evenodd"/><path d="M76.17,11.07A2.12,2.12,0,0,0,75.89,10,1,1,0,0,0,75,9.39,1.06,1.06,0,0,0,74,10a2.14,2.14,0,0,0-.28,1.14A2.12,2.12,0,0,0,74,12.21a1,1,0,0,0,1,.56,1.05,1.05,0,0,0,.94-.57A2.16,2.16,0,0,0,76.17,11.07Zm1.09,0a2.59,2.59,0,0,1-.62,1.78,2.23,2.23,0,0,1-1.73.72,2.1,2.1,0,0,1-1.65-.69,2.52,2.52,0,0,1-.62-1.74,2.53,2.53,0,0,1,.64-1.79,2.4,2.4,0,0,1,3.38,0,2.5,2.5,0,0,1,.6,1.73Z" fill="#fff" fill-rule="evenodd"/><path d="M81.24,11.81v-.72c-1.15,0-1.73.29-1.73.95a.69.69,0,0,0,.2.55.74.74,0,0,0,.51.18,1.07,1.07,0,0,0,.64-.21.89.89,0,0,0,.36-.56A.55.55,0,0,0,81.24,11.81Zm1.09,1.62h-.94l-.08-.54h0a1.62,1.62,0,0,1-1.38.65,1.39,1.39,0,0,1-1.07-.43,1.33,1.33,0,0,1-.37-1,1.48,1.48,0,0,1,.72-1.32,3.76,3.76,0,0,1,2-.44V10.3c0-.62-.32-.93-1-.93A2.12,2.12,0,0,0,79,9.72L78.79,9a3,3,0,0,1,1.62-.41c1.23,0,1.85.65,1.85,2v1.74a8,8,0,0,0,.07,1.12Z" fill="#fff" fill-rule="evenodd"/><path d="M87.2,11.44v-.78a1.42,1.42,0,0,0,0-.33,1.24,1.24,0,0,0-.38-.64,1,1,0,0,0-.7-.25,1.06,1.06,0,0,0-.92.46,2,2,0,0,0-.34,1.2,1.89,1.89,0,0,0,.32,1.13,1.1,1.1,0,0,0,.92.47,1,1,0,0,0,.83-.39A1.31,1.31,0,0,0,87.2,11.44Zm1.09,2h-.93l0-.75h0a1.59,1.59,0,0,1-1.52.86,1.74,1.74,0,0,1-1.41-.67,2.58,2.58,0,0,1-.56-1.74,2.72,2.72,0,0,1,.61-1.85,1.87,1.87,0,0,1,1.45-.66,1.43,1.43,0,0,1,1.33.64h0V6.56h1v5.6c0,.46,0,.89,0,1.27Z" fill="#fff" fill-rule="evenodd"/><path d="M96.16,11.07A2.12,2.12,0,0,0,95.88,10a1,1,0,0,0-.94-.56A1.06,1.06,0,0,0,94,10a2.14,2.14,0,0,0-.28,1.14A2.12,2.12,0,0,0,94,12.21a1.07,1.07,0,0,0,1.89,0A2.16,2.16,0,0,0,96.16,11.07Zm1.09,0a2.59,2.59,0,0,1-.62,1.78,2.23,2.23,0,0,1-1.73.72,2.1,2.1,0,0,1-1.65-.69,2.52,2.52,0,0,1-.62-1.74,2.53,2.53,0,0,1,.64-1.79,2.4,2.4,0,0,1,3.38,0,2.5,2.5,0,0,1,.6,1.73Z" fill="#fff" fill-rule="evenodd"/><path d="M102.88,13.43h-1v-2.7c0-.83-.32-1.25-1-1.25a.94.94,0,0,0-.76.35,1.24,1.24,0,0,0-.29.81v2.79h-1V10.07c0-.42,0-.87,0-1.35h.92l0,.74h0a1.55,1.55,0,0,1,.54-.57,1.75,1.75,0,0,1,.95-.27,1.49,1.49,0,0,1,1.1.43,2.08,2.08,0,0,1,.54,1.56v2.82" fill="#fff" fill-rule="evenodd"/><path d="M109.94,9.5h-1.16v2.29c0,.59.21.88.61.88a2,2,0,0,0,.47-.05l0,.79a2.33,2.33,0,0,1-.82.12,1.28,1.28,0,0,1-1-.38,1.85,1.85,0,0,1-.35-1.27V9.5h-.69V8.72h.69V7.86l1-.31V8.72h1.16V9.5" fill="#fff" fill-rule="evenodd"/><path d="M115.48,13.43h-1V10.75c0-.84-.32-1.27-1-1.27a1,1,0,0,0-1,.74,1.35,1.35,0,0,0,0,.38v2.83h-1V6.56h1V9.4h0a1.58,1.58,0,0,1,1.41-.78,1.43,1.43,0,0,1,1.08.43,2.11,2.11,0,0,1,.53,1.58v2.8" fill="#fff" fill-rule="evenodd"/><path d="M120.21,10.58a1.39,1.39,0,0,0-.21-.8.9.9,0,0,0-.83-.44,1,1,0,0,0-.83.43,1.49,1.49,0,0,0-.31.81Zm1,.27a3.08,3.08,0,0,1,0,.48H118a1.38,1.38,0,0,0,.45,1.07,1.63,1.63,0,0,0,1,.33,3.46,3.46,0,0,0,1.27-.23l.16.73a4,4,0,0,1-1.58.29,2.29,2.29,0,0,1-1.72-.64,2.39,2.39,0,0,1-.62-1.74,2.68,2.68,0,0,1,.58-1.77,2,2,0,0,1,1.65-.76,1.74,1.74,0,0,1,1.54.76,2.53,2.53,0,0,1,.42,1.48Z" fill="#fff" fill-rule="evenodd"/></svg>