<svg xmlns="http://www.w3.org/2000/svg" width="42" height="18" viewBox="0 0 133.77 58.34"><path d="M114.21 39.47a7.14 7.14 0 00-1.12-.09A6.48 6.48 0 00112 52.25a6.49 6.49 0 002.24-12.78zM52.56 39.47a6.92 6.92 0 00-1.11-.09 6.43 6.43 0 00-4.59 1.89 6.48 6.48 0 105.7-1.8zM63.56 42.86H101a12.17 12.17 0 011.43-3.48H62.11a12.27 12.27 0 011.45 3.48zM125.21 42.86h2.52v-3.48h-4a12.59 12.59 0 011.48 3.48z" fill="none"/><path d="M125.32 19.19h-10.61L112 15.1A33.29 33.29 0 0084.12 0H61.83a17.64 17.64 0 00-15.78 9.89l-4.5 9.3h-1.3a8.47 8.47 0 00-8.47 8.46v8.73a3 3 0 003 3h6a12.17 12.17 0 00-1.43 3.48H19.78a3 3 0 000 6h19.54a12.58 12.58 0 0010 9.31 13.84 13.84 0 002.11.17 12.47 12.47 0 0012.09-9.48H101a12.58 12.58 0 0010 9.31 13.62 13.62 0 002.1.17 12.47 12.47 0 0012.09-9.48h3.95l.59-.27c1-.42 4-2 4-5v-16a8.46 8.46 0 00-8.41-8.4zM56 50.44a6.48 6.48 0 11-9.17-9.17 6.43 6.43 0 014.59-1.89 6.92 6.92 0 011.11.09 6.48 6.48 0 013.47 11zM80.27 7a2.5 2.5 0 015 0v12.19a2.5 2.5 0 01-5 0zM101 42.86H63.56a12.27 12.27 0 00-1.45-3.48h40.3a12.17 12.17 0 00-1.41 3.48zm16.69 7.58a6.48 6.48 0 01-9.17-9.17 6.43 6.43 0 014.59-1.89 7.14 7.14 0 011.12.09 6.49 6.49 0 013.46 11zm10.1-7.6h-2.52a12.59 12.59 0 00-1.46-3.48h4z" fill="#fff"/><path fill="#fff" stroke="#fff" stroke-linecap="round" stroke-miterlimit="10" stroke-width="6" d="M24.92 26.75H3M24.92 36.16H9.48"/></svg>
