<svg xmlns="http://www.w3.org/2000/svg" xmlns:xlink="http://www.w3.org/1999/xlink" viewBox="0 0 135 40"><defs><mask id="a" x="0" y="0" width="135" height="40" maskUnits="userSpaceOnUse"><polygon points="0 20 0 0 135 0 135 20 135 40 0 40 0 20" fill="#fff" fill-rule="evenodd"/></mask><mask id="b" x="0" y="0" width="135" height="40" maskUnits="userSpaceOnUse"><polygon points="0 40 135 40 135 0 0 0 0 40" fill="#fff" fill-rule="evenodd"/></mask></defs><g mask="url(#a)"><path d="M130,40H5a5,5,0,0,1-5-5V5A5,5,0,0,1,5,0H130a5,5,0,0,1,5,5V35a5,5,0,0,1-5,5" fill="#010201" fill-rule="evenodd"/></g><path d="M130,0H5A5,5,0,0,0,0,5V35a5,5,0,0,0,5,5H130a5,5,0,0,0,5-5V5a5,5,0,0,0-5-5m0,.8A4.2,4.2,0,0,1,134.2,5V35a4.2,4.2,0,0,1-4.2,4.2H5A4.2,4.2,0,0,1,.8,35V5A4.2,4.2,0,0,1,5,.8H130" fill="#a6a6a5" fill-rule="evenodd"/><path d="M47.42,10.24a2.72,2.72,0,0,1-.75,2,2.9,2.9,0,0,1-2.2.88,3,3,0,0,1-2.21-.9A3,3,0,0,1,41.35,10a3,3,0,0,1,.91-2.23,3.16,3.16,0,0,1,3.44-.65,2.54,2.54,0,0,1,.94.67l-.53.53a2,2,0,0,0-1.64-.72A2.32,2.32,0,0,0,42.14,10a2.29,2.29,0,0,0,.69,1.73,2.27,2.27,0,0,0,1.64.67,2.32,2.32,0,0,0,1.68-.67,1.92,1.92,0,0,0,.5-1.22H44.47V9.79h2.91a3.75,3.75,0,0,1,0,.45" fill="#fefefe" fill-rule="evenodd"/><path d="M47.42,10.24a2.72,2.72,0,0,1-.75,2,2.9,2.9,0,0,1-2.2.88,3,3,0,0,1-2.21-.9A3,3,0,0,1,41.35,10a3,3,0,0,1,.91-2.23,3.16,3.16,0,0,1,3.44-.65,2.54,2.54,0,0,1,.94.67l-.53.53a2,2,0,0,0-1.64-.72A2.32,2.32,0,0,0,42.14,10a2.29,2.29,0,0,0,.69,1.73,2.27,2.27,0,0,0,1.64.67,2.32,2.32,0,0,0,1.68-.67,1.92,1.92,0,0,0,.5-1.22H44.47V9.79h2.91A3.75,3.75,0,0,1,47.42,10.24Z" fill="none" stroke="#fefefe" stroke-width="0.2"/><polygon points="52.03 7.74 49.3 7.74 49.3 9.64 51.76 9.64 51.76 10.36 49.3 10.36 49.3 12.26 52.03 12.26 52.03 13 48.52 13 48.52 7 52.03 7 52.03 7.74" fill="#fefefe" fill-rule="evenodd"/><polygon points="52.03 7.74 49.3 7.74 49.3 9.64 51.76 9.64 51.76 10.36 49.3 10.36 49.3 12.26 52.03 12.26 52.03 13 48.52 13 48.52 7 52.03 7 52.03 7.74" fill="none" stroke="#fefefe" stroke-width="0.2"/><polygon points="55.28 13 54.51 13 54.51 7.74 52.83 7.74 52.83 7 56.95 7 56.95 7.74 55.28 7.74 55.28 13" fill="#fefefe" fill-rule="evenodd"/><polygon points="55.28 13 54.51 13 54.51 7.74 52.83 7.74 52.83 7 56.95 7 56.95 7.74 55.28 7.74 55.28 13" fill="none" stroke="#fefefe" stroke-width="0.2"/><g mask="url(#b)"><polygon points="59.94 13 60.71 13 60.71 7 59.94 7 59.94 13" fill="#fefefe" fill-rule="evenodd"/></g><g mask="url(#b)"><polygon points="59.94 13 60.71 13 60.71 7 59.94 7 59.94 13" fill="none" stroke="#fefefe" stroke-width="0.2"/></g><g mask="url(#b)"><polygon points="64.13 13 63.36 13 63.36 7.74 61.68 7.74 61.68 7 65.8 7 65.8 7.74 64.13 7.74 64.13 13" fill="#fefefe" fill-rule="evenodd"/></g><g mask="url(#b)"><polygon points="64.13 13 63.36 13 63.36 7.74 61.68 7.74 61.68 7 65.8 7 65.8 7.74 64.13 7.74 64.13 13" fill="none" stroke="#fefefe" stroke-width="0.2"/></g><g mask="url(#b)"><path d="M69.78,11.72a2.29,2.29,0,0,0,3.26,0A2.36,2.36,0,0,0,73.71,10,2.36,2.36,0,0,0,73,8.28a2.29,2.29,0,0,0-3.26,0A2.36,2.36,0,0,0,69.11,10a2.36,2.36,0,0,0,.67,1.72m3.83.5a3.11,3.11,0,0,1-4.4,0A3,3,0,0,1,68.33,10a3,3,0,0,1,.88-2.22,2.93,2.93,0,0,1,2.2-.91,3,3,0,0,1,2.2.91A3.07,3.07,0,0,1,74.49,10a3,3,0,0,1-.88,2.22" fill="#fefefe" fill-rule="evenodd"/></g><g mask="url(#b)"><path d="M69.78,11.72a2.29,2.29,0,0,0,3.26,0A2.36,2.36,0,0,0,73.71,10,2.36,2.36,0,0,0,73,8.28a2.29,2.29,0,0,0-3.26,0A2.36,2.36,0,0,0,69.11,10,2.36,2.36,0,0,0,69.78,11.72Zm3.83.5a3.11,3.11,0,0,1-4.4,0A3,3,0,0,1,68.33,10a3,3,0,0,1,.88-2.22,2.93,2.93,0,0,1,2.2-.91,3,3,0,0,1,2.2.91A3.07,3.07,0,0,1,74.49,10,3,3,0,0,1,73.61,12.22Z" fill="none" stroke="#fefefe" stroke-width="0.2"/></g><g mask="url(#b)"><polygon points="75.58 13 75.58 7 76.51 7 79.43 11.67 79.46 11.67 79.43 10.51 79.43 7 80.2 7 80.2 13 79.4 13 76.34 8.11 76.31 8.11 76.34 9.26 76.34 13 75.58 13" fill="#fefefe" fill-rule="evenodd"/></g><g mask="url(#b)"><polygon points="75.58 13 75.58 7 76.51 7 79.43 11.67 79.46 11.67 79.43 10.51 79.43 7 80.2 7 80.2 13 79.4 13 76.34 8.11 76.31 8.11 76.34 9.26 76.34 13 75.58 13" fill="none" stroke="#fefefe" stroke-width="0.2"/></g><g mask="url(#b)"><path d="M106.94,30h1.86V17.5h-1.86Zm16.8-8-2.14,5.42h-.06L119.32,22h-2l3.33,7.58-1.9,4.21h2L125.82,22Zm-10.58,6.58c-.61,0-1.46-.31-1.46-1.06,0-1,1.06-1.34,2-1.34a3.32,3.32,0,0,1,1.7.42,2.26,2.26,0,0,1-2.22,2Zm.23-6.85a3.5,3.5,0,0,0-3.33,1.91l1.65.69a1.78,1.78,0,0,1,1.71-.91,1.8,1.8,0,0,1,2,1.61v.12a4.18,4.18,0,0,0-1.95-.48c-1.78,0-3.6,1-3.6,2.82a2.89,2.89,0,0,0,3.1,2.75A2.65,2.65,0,0,0,115.32,29h.06v1h1.8V25.19c0-2.22-1.65-3.46-3.79-3.46Zm-11.54,1.79H99.2V19.24h2.65a2.14,2.14,0,1,1,0,4.28Zm0-6H97.33V30H99.2V25.26h2.61a3.89,3.89,0,1,0,0-7.76ZM77.43,28.58a2.58,2.58,0,0,1,0-5.15A2.39,2.39,0,0,1,79.7,26a2.38,2.38,0,0,1-2.27,2.56Zm2.14-5.88H79.5a2.94,2.94,0,0,0-2.24-.95,4.26,4.26,0,0,0,0,8.51,2.88,2.88,0,0,0,2.24-1h.07v.61c0,1.63-.87,2.5-2.27,2.5a2.36,2.36,0,0,1-2.15-1.51l-1.62.67a4,4,0,0,0,3.77,2.52c2.19,0,4-1.29,4-4.43V22H79.57ZM82.63,30H84.5V17.5H82.63Zm4.62-4.12a2.33,2.33,0,0,1,2.22-2.48,1.63,1.63,0,0,1,1.58.9Zm5.8-1.42a4,4,0,0,0-3.64-2.71,4,4,0,0,0-4,4.26,4.16,4.16,0,0,0,4.22,4.25,4.23,4.23,0,0,0,3.55-1.89l-1.46-1a2.41,2.41,0,0,1-2.09,1.17,2.15,2.15,0,0,1-2.06-1.29l5.69-2.35Zm-45.31-1.4v1.8h4.32a3.77,3.77,0,0,1-1,2.27,4.42,4.42,0,0,1-3.34,1.32,4.8,4.8,0,0,1,0-9.6A4.64,4.64,0,0,1,51,20.14l1.27-1.27a6.3,6.3,0,0,0-4.53-1.82,6.61,6.61,0,1,0,0,13.21,6.07,6.07,0,0,0,4.61-1.85,6,6,0,0,0,1.56-4.23,6.27,6.27,0,0,0-.09-1.12Zm11.08,5.52A2.58,2.58,0,1,1,61.22,26a2.46,2.46,0,0,1-2.4,2.57Zm0-6.83A4.26,4.26,0,1,0,63.09,26a4.2,4.2,0,0,0-4.27-4.26Zm9.32,6.83A2.58,2.58,0,1,1,70.54,26a2.46,2.46,0,0,1-2.4,2.57Zm0-6.83A4.26,4.26,0,1,0,72.4,26a4.19,4.19,0,0,0-4.26-4.26Z" fill="#fefefe" fill-rule="evenodd"/></g><g mask="url(#b)"><path d="M10.44,7.55A2,2,0,0,0,10,9v22.1a1.94,1.94,0,0,0,.47,1.4l.07.08L22.89,20.15v-.3L10.51,7.48Z" fill="#5ac8f3" fill-rule="evenodd"/></g><path d="M22.89,19.85v.3L27,24.27l.1-.05L32,21.44c1.39-.79,1.39-2.09,0-2.88h0l-4.89-2.78-.1,0Z" fill="#fcdb01" fill-rule="evenodd"/><path d="M10.44,32.45a1.61,1.61,0,0,0,2.07.06h0l14.6-8.29L22.89,20Z" fill="#e63a53" fill-rule="evenodd"/><path d="M10.44,7.55,22.89,20l4.22-4.22L12.51,7.49a2.28,2.28,0,0,0-1.12-.34h0a1.26,1.26,0,0,0-1,.4" fill="#72c169" fill-rule="evenodd"/></svg>