<svg xmlns="http://www.w3.org/2000/svg" viewBox="0 0 67.33 67.33"><path d="M34.5,24.09a9.75,9.75,0,0,0-2,.21,9.31,9.31,0,1,1,1.19,18.55,9.38,9.38,0,0,1-2.5-.35A9.5,9.5,0,1,0,34.5,24.09Z" fill="#114b87"/><path d="M28.24,33.6a6.22,6.22,0,0,1,5.38-6.16,6.1,6.1,0,0,0-1,12.1A6.22,6.22,0,0,1,28.24,33.6Z" fill="#114b87"/><path d="M33.67,0A33.67,33.67,0,1,0,67.33,33.67,33.66,33.66,0,0,0,33.67,0ZM50.58,41.2A9.87,9.87,0,0,1,40.74,51H26.59a9.87,9.87,0,0,1-9.84-9.84V26.13a9.87,9.87,0,0,1,9.84-9.84H40.74a9.87,9.87,0,0,1,9.84,9.84Z" fill="#114b87"/><path d="M44.16,21.7a2.18,2.18,0,0,0-.89.18,2.19,2.19,0,0,1,.58,4.28,1.55,1.55,0,0,0,.31,0,2.25,2.25,0,0,0,0-4.5Z" fill="#114b87"/><path d="M19.85,41.42V26A7.32,7.32,0,0,1,22,20.83a7.61,7.61,0,0,1,2.34-1.58,7.28,7.28,0,0,0-5,6.88V41.2a7.18,7.18,0,0,0,2.13,5.11,7.45,7.45,0,0,0,1.77,1.31,7.63,7.63,0,0,1-1.23-1A7.32,7.32,0,0,1,19.85,41.42Z" fill="#114b87"/><path d="M39.77,33.54a6.1,6.1,0,0,0-6.1-6.1h-.05a6.22,6.22,0,0,0-1,12.1,6.36,6.36,0,0,0,1.07.1A6.1,6.1,0,0,0,39.77,33.54Z" fill="#114b87"/><path d="M40.74,18.89H26.59a7.23,7.23,0,0,0-2.23.36A7.61,7.61,0,0,0,22,20.83,7.32,7.32,0,0,0,19.85,26V41.42A7.32,7.32,0,0,0,22,46.63a7.63,7.63,0,0,0,1.23,1,7.14,7.14,0,0,0,3.34.82H40.74A7.27,7.27,0,0,0,48,41.2V26.13a7.27,7.27,0,0,0-7.24-7.24ZM34.5,43.09a9.44,9.44,0,0,1-3.28-.59,9.31,9.31,0,0,1,1.31-18.2,9.75,9.75,0,0,1,2-.21,9.5,9.5,0,0,1,0,19ZM44.16,26.2a1.55,1.55,0,0,1-.31,0,2.09,2.09,0,0,1-.67.12,2.21,2.21,0,0,1,0-4.41h.09a2.18,2.18,0,0,1,.89-.18,2.25,2.25,0,0,1,0,4.5Z" fill="#114b87"/></svg>
