<svg xmlns="http://www.w3.org/2000/svg" viewBox="0 0 42.89 44.07"><path d="M30.41,44.07H12.48A12.52,12.52,0,0,1,0,31.59V12.48A12.52,12.52,0,0,1,12.48,0H30.41A12.52,12.52,0,0,1,42.89,12.48V31.59A12.52,12.52,0,0,1,30.41,44.07Zm0-3.3a9.22,9.22,0,0,0,9.19-9.18V12.48A9.22,9.22,0,0,0,30.41,3.3H12.48A9.22,9.22,0,0,0,3.3,12.48V31.59a9.22,9.22,0,0,0,9.18,9.18Z" fill="#fff"/><path d="M33.32,21.86A11.81,11.81,0,1,1,21.51,10.05,11.81,11.81,0,0,1,33.32,21.86ZM21.46,14.14a7.74,7.74,0,1,0,7.73,7.73A7.73,7.73,0,0,0,21.46,14.14Z" fill="#fff"/><circle cx="33.51" cy="9.87" r="2.8" fill="#fff"/></svg>