<svg xmlns="http://www.w3.org/2000/svg" viewBox="0 0 67.15 67.15"><path d="M33.58,0A33.58,33.58,0,1,0,67.15,33.57,33.57,33.57,0,0,0,33.58,0ZM49.39,27.49c0,.34,0,.69,0,1a22.48,22.48,0,0,1-.55,4.85,22.72,22.72,0,0,1-22.66,18,23.35,23.35,0,0,1-12.51-3.61,15.71,15.71,0,0,0,2,.11,16.49,16.49,0,0,0,10.13-3.44,8.14,8.14,0,0,1-7.62-5.57,8.62,8.62,0,0,0,1.53.14,8.39,8.39,0,0,0,2.15-.28,8.13,8.13,0,0,1-6-5,7.81,7.81,0,0,1-.56-2.91v-.1a8.23,8.23,0,0,0,3.69,1A8,8,0,0,1,16.46,21a23.31,23.31,0,0,0,16.82,8.4,7.9,7.9,0,0,1-.21-1.83,8.1,8.1,0,0,1,8.16-8,8.22,8.22,0,0,1,6,2.54,16.42,16.42,0,0,0,5.18-2,8,8,0,0,1-3.59,4.44,16.25,16.25,0,0,0,4.69-1.26A16.42,16.42,0,0,1,49.39,27.49Z" fill="#114b87"/></svg>
